<?xml version="1.0" encoding="utf-8"?>
<!-- Generator: Adobe Illustrator 16.0.0, SVG Export Plug-In . SVG Version: 6.00 Build 0)  -->
<!DOCTYPE svg PUBLIC "-//W3C//DTD SVG 1.1//EN" "http://www.w3.org/Graphics/SVG/1.1/DTD/svg11.dtd">
<svg version="1.1" xmlns="http://www.w3.org/2000/svg" xmlns:xlink="http://www.w3.org/1999/xlink" x="0px" y="0px" width="160px"
	 height="32px" viewBox="0 0 160 32" enable-background="new 0 0 160 32" xml:space="preserve">
<g id="Layer_2">
	<g display="none">
		<path display="inline" fill="#8C6239" d="M142,144c3.309,0,6,2.691,6,6s-2.691,6-6,6s-6-2.691-6-6S138.691,144,142,144 M142,142
			c-4.418,0-8,3.582-8,8c0,4.418,3.582,8,8,8s8-3.582,8-8C150,145.582,146.418,142,142,142L142,142z"/>
	</g>
	<path fill="#7B7168" d="M288,228c-4.078,0-7.438,3.055-7.931,7h2.021c0.479-2.833,2.943-5,5.91-5c3.309,0,6,2.691,6,6s-2.691,6-6,6
		c-2.166,0-4.062-1.157-5.117-2.883l-1.447,1.447C282.881,242.64,285.28,244,288,244c4.418,0,8-3.582,8-8S292.418,228,288,228z"/>
	<polygon fill="#7B7168" points="286.998,235 280,235 280,228 	"/>
	<rect x="286" y="236" fill="#7B7168" width="4" height="2"/>
	<rect x="288" y="232" fill="#7B7168" width="2" height="4"/>
	<g display="none">
		<path display="inline" fill="#8C6239" d="M56,142c3.309,0,6,2.691,6,6s-2.691,6-6,6s-6-2.691-6-6S52.691,142,56,142 M56,140
			c-4.418,0-8,3.582-8,8c0,4.418,3.582,8,8,8s8-3.582,8-8C64,143.582,60.418,140,56,140L56,140z"/>
	</g>
</g>
<g id="nav-icons">
	<polygon display="none" fill="#D9E021" points="128,0 96,0 64,0 32,0 0,0 0,32 32,32 64,32 96,32 128,32 160,32 160,0 	"/>
	<rect display="none" fill="#3FA9F5" width="32" height="32"/>
	<path fill="#7B7168" d="M22.092,17.405c-0.502-0.173-0.957-0.256-1.367-0.249s-0.825,0.078-1.246,0.212
		c-0.42,0.135-0.771,0.283-1.055,0.445c-0.283,0.163-0.557,0.349-0.822,0.557c-0.264,0.209-0.439,0.354-0.524,0.436
		c-0.084,0.08-0.148,0.146-0.19,0.195c0.353-0.961,0.611-1.961,0.773-3l0.181,0.032c0.12,0.021,0.284,0.037,0.493,0.048
		c0.208,0.011,0.447,0.014,0.715,0.011c0.27-0.003,0.553-0.037,0.849-0.101c0.297-0.063,0.596-0.148,0.896-0.255
		c0.301-0.106,0.589-0.267,0.865-0.482c0.275-0.215,0.521-0.468,0.736-0.758c0.216-0.29,0.393-0.659,0.53-1.108
		s0.214-0.949,0.228-1.5c-0.48-0.163-0.949-0.247-1.404-0.254c-0.456-0.007-0.852,0.044-1.188,0.154
		c-0.336,0.11-0.659,0.267-0.971,0.472c-0.311,0.205-0.562,0.401-0.752,0.588c-0.191,0.188-0.37,0.393-0.536,0.615
		s-0.274,0.375-0.323,0.456c-0.049,0.081-0.085,0.146-0.105,0.196c0.006-0.184,0.01-0.437,0.01-0.758c0-0.322-0.004-0.5-0.01-0.536
		l0.074-0.159c0.057-0.106,0.116-0.254,0.18-0.445s0.131-0.41,0.201-0.657s0.117-0.518,0.139-0.811s0.022-0.596,0.005-0.907
		c-0.018-0.311-0.091-0.625-0.218-0.943c-0.127-0.318-0.297-0.619-0.508-0.901c-0.213-0.283-0.512-0.553-0.896-0.811
		c-0.386-0.258-0.836-0.475-1.352-0.652C15.138,7.013,14.89,7.502,14.756,8c-0.134,0.498-0.177,0.947-0.127,1.347
		c0.05,0.399,0.166,0.797,0.35,1.192c0.184,0.396,0.375,0.725,0.573,0.986c0.198,0.262,0.422,0.514,0.673,0.758
		c0.251,0.244,0.424,0.401,0.52,0.472c0.096,0.071,0.171,0.127,0.228,0.169c0,0.516-0.042,1.205-0.127,2.067l-0.042-0.169
		c-0.036-0.106-0.092-0.246-0.17-0.419c-0.078-0.173-0.175-0.371-0.292-0.594s-0.265-0.445-0.445-0.667
		c-0.18-0.223-0.378-0.438-0.594-0.647c-0.215-0.208-0.475-0.385-0.779-0.53c-0.304-0.145-0.629-0.251-0.975-0.318
		c-0.347-0.067-0.744-0.071-1.193-0.011c-0.449,0.06-0.921,0.189-1.416,0.387c0.042,0.495,0.143,0.946,0.302,1.352
		c0.159,0.407,0.352,0.741,0.578,1.002c0.226,0.262,0.491,0.491,0.795,0.689c0.304,0.198,0.601,0.349,0.891,0.451
		c0.29,0.102,0.603,0.184,0.938,0.244c0.335,0.06,0.624,0.095,0.864,0.106s0.486,0.013,0.737,0.005
		c0.251-0.007,0.416-0.016,0.493-0.027c0.078-0.01,0.141-0.019,0.191-0.026c-0.184,1.131-0.463,2.159-0.838,3.085
		c-0.176-0.311-0.376-0.6-0.599-0.869c-0.223-0.269-0.536-0.541-0.938-0.816s-0.843-0.475-1.32-0.599
		c-0.477-0.124-1.069-0.15-1.776-0.08c-0.707,0.071-1.463,0.272-2.269,0.604c0.233,0.587,0.496,1.104,0.79,1.549
		s0.592,0.799,0.896,1.06c0.304,0.262,0.629,0.47,0.976,0.626c0.346,0.155,0.675,0.256,0.986,0.302s0.633,0.055,0.965,0.026
		c0.332-0.027,0.625-0.074,0.88-0.138c0.254-0.063,0.509-0.145,0.763-0.243c-0.721,1.328-1.61,2.369-2.667,3.122
		c-1.057,0.753-2.197,1.132-3.419,1.14c-0.134,0-0.248,0.044-0.339,0.133c-0.092,0.088-0.138,0.199-0.138,0.334
		c0,0.134,0.046,0.247,0.138,0.339s0.205,0.138,0.339,0.138c1.47-0.007,2.829-0.475,4.077-1.404s2.271-2.2,3.069-3.812l0.181,0.106
		c0.113,0.071,0.275,0.15,0.487,0.239c0.212,0.088,0.458,0.186,0.738,0.291c0.278,0.105,0.584,0.184,0.916,0.233
		s0.674,0.079,1.023,0.09s0.709-0.04,1.076-0.153s0.717-0.277,1.05-0.493c0.332-0.216,0.653-0.528,0.965-0.938
		s0.579-0.897,0.806-1.463C23.079,17.852,22.594,17.579,22.092,17.405z"/>
	<rect x="32" display="none" fill="#D9E021" width="32" height="32"/>
	<g>
		<path fill="#7B7168" d="M50,17.76V8.5C50,7.119,48.881,6,47.5,6S45,7.119,45,8.5v9.26c-1.205,0.808-2,2.181-2,3.74
			c0,2.485,2.015,4.5,4.5,4.5s4.5-2.015,4.5-4.5C52,19.94,51.205,18.567,50,17.76z M47.5,25c-1.934,0-3.5-1.567-3.5-3.5
			c0-1.394,0.82-2.587,2-3.15V8.5C46,7.671,46.672,7,47.5,7S49,7.671,49,8.5v9.85c1.179,0.563,2,1.757,2,3.15
			C51,23.433,49.433,25,47.5,25z"/>
		<path fill="#7B7168" d="M48,19.051V11h-1v8.051c-1.141,0.231-2,1.239-2,2.449c0,1.381,1.119,2.5,2.5,2.5s2.5-1.119,2.5-2.5
			C50,20.29,49.142,19.282,48,19.051z"/>
	</g>
	<rect x="64" display="none" fill="#00FF00" width="32" height="32"/>
	<path fill="#7B7168" d="M73,15v5h3v-5H73z M77,9v11h3V9H77z M70,22V7h-1v16h22v-1H70z M81,12v8h3v-8H81z M85,8v12h3V8H85z"/>
	<rect x="96" display="none" fill="#FF7BAC" width="32" height="32"/>
	<g>
		<path fill="#7B7168" d="M111,7c-4.078,0-7.438,3.055-7.931,7h2.021c0.479-2.833,2.943-5,5.91-5c3.309,0,6,2.691,6,6s-2.691,6-6,6
			c-2.166,0-4.062-1.157-5.117-2.883l-1.447,1.447C105.881,21.64,108.28,23,111,23c4.418,0,8-3.582,8-8C119,10.582,115.418,7,111,7z
			"/>
		<polygon fill="#7B7168" points="109.998,14 103,14 103,7 		"/>
		<rect x="109" y="16" fill="#7B7168" width="3" height="1"/>
		<rect x="111" y="12" fill="#7B7168" width="1" height="4"/>
	</g>
	<rect x="128" display="none" fill="#FF1D25" width="32" height="32"/>
	<g>
		<path fill="#7B7168" d="M146.384,19.898C145.719,20.421,145,20.905,144,21.35V9h5v7.081C149,17.325,148.044,18.597,146.384,19.898
			L146.384,19.898z M150.635,7.331C150.5,7.197,150.177,7,149.992,7h-12.213c-0.185,0-0.394,0.197-0.528,0.331
			C137.117,7.466,137,7.753,137,7.938v8.143c0,0.608,0.169,1.21,0.405,1.808s0.556,1.128,0.905,1.591s0.778,0.913,1.263,1.352
			s0.938,0.802,1.349,1.093c0.41,0.289,0.841,0.562,1.286,0.821c0.445,0.258,0.763,0.433,0.949,0.524
			c0.188,0.092,0.339,0.162,0.451,0.213c0.086,0.042,0.179,0.062,0.277,0.062s0.19-0.021,0.275-0.062
			c0.113-0.051,0.264-0.121,0.45-0.213c0.188-0.092,0.504-0.267,0.949-0.524c0.445-0.259,0.873-0.532,1.283-0.821
			c0.41-0.291,0.857-0.654,1.342-1.093c0.483-0.438,0.9-0.889,1.25-1.352c0.351-0.463,0.808-0.993,1.045-1.591
			c0.236-0.598,0.52-1.199,0.52-1.808V7.938C151,7.753,150.768,7.466,150.635,7.331z"/>
	</g>
</g>
</svg>
