<?xml version="1.0" encoding="utf-8"?>
<!-- Generator: Adobe Illustrator 16.0.0, SVG Export Plug-In . SVG Version: 6.00 Build 0)  -->
<!DOCTYPE svg PUBLIC "-//W3C//DTD SVG 1.1//EN" "http://www.w3.org/Graphics/SVG/1.1/DTD/svg11.dtd">
<svg version="1.1" xmlns="http://www.w3.org/2000/svg" xmlns:xlink="http://www.w3.org/1999/xlink" x="0px" y="0px" width="19px"
	 height="14px" viewBox="0 0 19 14" enable-background="new 0 0 19 14" xml:space="preserve">
<g id="Layer_2">
	<g display="none">
		<path display="inline" fill="#8C6239" d="M98.822-22c3.309,0,6,2.691,6,6s-2.691,6-6,6s-6-2.691-6-6S95.514-22,98.822-22
			 M98.822-24c-4.418,0-8,3.582-8,8c0,4.418,3.582,8,8,8s8-3.582,8-8C106.822-20.418,103.24-24,98.822-24L98.822-24z"/>
	</g>
	<path fill="#7B7168" d="M244.822,62c-4.078,0-7.438,3.055-7.931,7h2.021c0.479-2.833,2.943-5,5.91-5c3.309,0,6,2.691,6,6
		s-2.691,6-6,6c-2.166,0-4.062-1.157-5.117-2.883l-1.447,1.447c1.445,2.075,3.845,3.436,6.564,3.436c4.418,0,8-3.582,8-8
		S249.24,62,244.822,62z"/>
	<polygon fill="#7B7168" points="243.82,69 236.822,69 236.822,62 	"/>
	<rect x="242.822" y="70" fill="#7B7168" width="4" height="2"/>
	<rect x="244.822" y="66" fill="#7B7168" width="2" height="4"/>
	<g display="none">
		<path display="inline" fill="#8C6239" d="M12.822-24c3.309,0,6,2.691,6,6s-2.691,6-6,6s-6-2.691-6-6S9.514-24,12.822-24
			 M12.822-26c-4.418,0-8,3.582-8,8c0,4.418,3.582,8,8,8s8-3.582,8-8C20.822-22.418,17.24-26,12.822-26L12.822-26z"/>
	</g>
</g>
<g id="nav-icons">
	<polygon display="none" fill="#D9E021" points="84.822,-166 52.822,-166 20.822,-166 -11.178,-166 -43.178,-166 -43.178,-134 
		-11.178,-134 20.822,-134 52.822,-134 84.822,-134 116.822,-134 116.822,-166 	"/>
	<rect x="-43.178" y="-166" display="none" fill="#3FA9F5" width="32" height="32"/>
	<path fill="#7B7168" d="M-21.085-148.595c-0.502-0.173-0.957-0.256-1.367-0.249s-0.825,0.078-1.246,0.212
		c-0.42,0.135-0.771,0.283-1.055,0.445c-0.283,0.163-0.557,0.349-0.822,0.557c-0.264,0.209-0.439,0.354-0.524,0.436
		c-0.084,0.08-0.148,0.146-0.19,0.195c0.353-0.961,0.611-1.961,0.773-3l0.181,0.032c0.12,0.021,0.284,0.037,0.493,0.048
		c0.208,0.011,0.447,0.014,0.715,0.011c0.27-0.003,0.553-0.037,0.849-0.101c0.297-0.063,0.596-0.148,0.896-0.255
		c0.301-0.106,0.589-0.267,0.865-0.482c0.275-0.215,0.521-0.468,0.736-0.758c0.216-0.29,0.393-0.659,0.53-1.108
		s0.214-0.949,0.228-1.5c-0.48-0.163-0.949-0.247-1.404-0.254c-0.456-0.007-0.852,0.044-1.188,0.154
		c-0.336,0.11-0.659,0.267-0.971,0.472c-0.311,0.205-0.562,0.401-0.752,0.588c-0.191,0.188-0.37,0.393-0.536,0.615
		s-0.274,0.375-0.323,0.456c-0.049,0.081-0.085,0.146-0.105,0.196c0.006-0.184,0.01-0.437,0.01-0.758c0-0.322-0.004-0.5-0.01-0.536
		l0.074-0.159c0.057-0.106,0.116-0.254,0.18-0.445s0.131-0.41,0.201-0.657s0.117-0.518,0.139-0.811s0.022-0.596,0.005-0.907
		c-0.018-0.311-0.091-0.625-0.218-0.943c-0.127-0.318-0.297-0.619-0.508-0.901c-0.213-0.283-0.512-0.553-0.896-0.811
		c-0.386-0.258-0.836-0.475-1.352-0.652c-0.36,0.481-0.608,0.97-0.742,1.469c-0.134,0.498-0.177,0.947-0.127,1.347
		c0.05,0.399,0.166,0.797,0.35,1.192c0.184,0.396,0.375,0.725,0.573,0.986c0.198,0.262,0.422,0.514,0.673,0.758
		c0.251,0.244,0.424,0.401,0.52,0.472c0.096,0.071,0.171,0.127,0.228,0.169c0,0.516-0.042,1.205-0.127,2.067l-0.042-0.169
		c-0.036-0.106-0.092-0.246-0.17-0.419c-0.078-0.173-0.175-0.371-0.292-0.594s-0.265-0.445-0.445-0.667
		c-0.18-0.223-0.378-0.438-0.594-0.647c-0.215-0.208-0.475-0.385-0.779-0.53c-0.304-0.145-0.629-0.251-0.975-0.318
		c-0.347-0.067-0.744-0.071-1.193-0.011c-0.449,0.06-0.921,0.189-1.416,0.387c0.042,0.495,0.143,0.946,0.302,1.352
		c0.159,0.407,0.352,0.741,0.578,1.002c0.226,0.262,0.491,0.491,0.795,0.689c0.304,0.198,0.601,0.349,0.891,0.451
		c0.29,0.102,0.603,0.184,0.938,0.244c0.335,0.06,0.624,0.095,0.864,0.106s0.486,0.013,0.737,0.005
		c0.251-0.007,0.416-0.016,0.493-0.027c0.078-0.01,0.141-0.019,0.191-0.026c-0.184,1.131-0.463,2.159-0.838,3.085
		c-0.176-0.311-0.376-0.6-0.599-0.869c-0.223-0.269-0.536-0.541-0.938-0.816s-0.843-0.475-1.32-0.599
		c-0.477-0.124-1.069-0.15-1.776-0.08c-0.707,0.071-1.463,0.272-2.269,0.604c0.233,0.587,0.496,1.104,0.79,1.549
		s0.592,0.799,0.896,1.06c0.304,0.262,0.629,0.47,0.976,0.626c0.346,0.155,0.675,0.256,0.986,0.302s0.633,0.055,0.965,0.026
		c0.332-0.027,0.625-0.074,0.88-0.138c0.254-0.063,0.509-0.145,0.763-0.243c-0.721,1.328-1.61,2.369-2.667,3.122
		c-1.057,0.753-2.197,1.132-3.419,1.14c-0.134,0-0.248,0.044-0.339,0.133c-0.092,0.088-0.138,0.199-0.138,0.334
		c0,0.134,0.046,0.247,0.138,0.339s0.205,0.138,0.339,0.138c1.47-0.007,2.829-0.475,4.077-1.404s2.271-2.2,3.069-3.812l0.181,0.106
		c0.113,0.071,0.275,0.15,0.487,0.239c0.212,0.088,0.458,0.186,0.738,0.291c0.278,0.105,0.584,0.184,0.916,0.233
		s0.674,0.079,1.023,0.09s0.709-0.04,1.076-0.153s0.717-0.277,1.05-0.493c0.332-0.216,0.653-0.528,0.965-0.938
		s0.579-0.897,0.806-1.463C-20.099-148.148-20.583-148.421-21.085-148.595z"/>
	<rect x="-11.178" y="-166" display="none" fill="#D9E021" width="32" height="32"/>
	<g>
		<path fill="#7B7168" d="M6.822-148.24v-9.26c0-1.381-1.119-2.5-2.5-2.5s-2.5,1.119-2.5,2.5v9.26c-1.205,0.808-2,2.181-2,3.74
			c0,2.485,2.015,4.5,4.5,4.5s4.5-2.015,4.5-4.5C8.822-146.06,8.027-147.433,6.822-148.24z M4.322-141c-1.934,0-3.5-1.567-3.5-3.5
			c0-1.394,0.82-2.587,2-3.15v-9.85c0-0.829,0.672-1.5,1.5-1.5s1.5,0.671,1.5,1.5v9.85c1.179,0.563,2,1.757,2,3.15
			C7.822-142.567,6.255-141,4.322-141z"/>
		<path fill="#7B7168" d="M4.822-146.949V-155h-1v8.051c-1.141,0.231-2,1.239-2,2.449c0,1.381,1.119,2.5,2.5,2.5s2.5-1.119,2.5-2.5
			C6.822-145.71,5.964-146.718,4.822-146.949z"/>
	</g>
	<rect x="20.822" y="-166" display="none" fill="#00FF00" width="32" height="32"/>
	<path fill="#7B7168" d="M29.822-151v5h3v-5H29.822z M33.822-157v11h3v-11H33.822z M26.822-144v-15h-1v16h22v-1H26.822z M37.822-154
		v8h3v-8H37.822z M41.822-158v12h3v-12H41.822z"/>
	<rect x="52.822" y="-166" display="none" fill="#FF7BAC" width="32" height="32"/>
	<g>
		<path fill="#7B7168" d="M67.822-159c-4.078,0-7.438,3.055-7.931,7h2.021c0.479-2.833,2.943-5,5.91-5c3.309,0,6,2.691,6,6
			s-2.691,6-6,6c-2.166,0-4.062-1.157-5.117-2.883l-1.447,1.447c1.445,2.075,3.845,3.436,6.564,3.436c4.418,0,8-3.582,8-8
			C75.822-155.418,72.24-159,67.822-159z"/>
		<polygon fill="#7B7168" points="66.82,-152 59.822,-152 59.822,-159 		"/>
		<rect x="65.822" y="-150" fill="#7B7168" width="3" height="1"/>
		<rect x="67.822" y="-154" fill="#7B7168" width="1" height="4"/>
	</g>
	<rect x="84.822" y="-166" display="none" fill="#FF1D25" width="32" height="32"/>
	<g>
		<path fill="#7B7168" d="M103.206-146.102c-0.665,0.523-1.384,1.007-2.384,1.452V-157h5v7.081
			C105.822-148.675,104.866-147.403,103.206-146.102L103.206-146.102z M107.457-158.669c-0.135-0.134-0.458-0.331-0.643-0.331
			H94.602c-0.185,0-0.394,0.197-0.528,0.331c-0.134,0.135-0.251,0.422-0.251,0.607v8.143c0,0.608,0.169,1.21,0.405,1.808
			s0.556,1.128,0.905,1.591s0.778,0.913,1.263,1.352s0.938,0.802,1.349,1.093c0.41,0.289,0.841,0.562,1.286,0.821
			c0.445,0.258,0.763,0.433,0.949,0.524c0.188,0.092,0.339,0.162,0.451,0.213c0.086,0.042,0.179,0.062,0.277,0.062
			s0.19-0.021,0.275-0.062c0.113-0.051,0.264-0.121,0.45-0.213c0.188-0.092,0.504-0.267,0.949-0.524
			c0.445-0.259,0.873-0.532,1.283-0.821c0.41-0.291,0.857-0.654,1.342-1.093c0.483-0.438,0.9-0.889,1.25-1.352
			c0.351-0.463,0.808-0.993,1.045-1.591c0.236-0.598,0.52-1.199,0.52-1.808v-8.143C107.822-158.247,107.59-158.534,107.457-158.669z
			"/>
	</g>
	<path fill="#82B600" d="M19,7c0,3.865-3.297,7-7.362,7H7.362C3.297,14,0,10.865,0,7l0,0c0-3.866,3.297-7,7.362-7h4.275
		C15.703,0,19,3.134,19,7L19,7z"/>
	<path fill="#FFFFFF" d="M11.218,10.274c-0.46,0.144-1.137,0.226-1.699,0.226c-2.037,0-3.603-1.525-3.603-3.519
		c0-2.007,1.515-3.481,3.572-3.481c0.481,0,1.044,0.062,1.401,0.154c0.297,0.082,0.452,0.153,0.821,0.358l-0.319,0.694
		c-0.164-0.093-0.276-0.144-0.358-0.185c-0.39-0.163-0.921-0.266-1.463-0.266c-0.952,0-1.565,0.256-2.089,0.86
		c-0.418,0.49-0.665,1.136-0.665,1.801c0,1.627,1.248,2.825,2.937,2.825c0.337,0,0.572-0.031,1.114-0.144V7.347h0.841v2.764
		C11.494,10.192,11.33,10.244,11.218,10.274z"/>
</g>
</svg>
